<?xml version="1.0" encoding="UTF-8"?>
<!DOCTYPE svg PUBLIC "-//W3C//DTD SVG 1.1//EN"
    "http://www.w3.org/Graphics/SVG/1.1/DTD/svg11.dtd">
<svg xmlns="http://www.w3.org/2000/svg" xmlns:xlink="http://www.w3.org/1999/xlink" version="1.1" width="400.0" height="472.7757644216438" font-size="1" viewBox="0 0 400 473"><g><g fill="rgb(0,0,0)" fill-opacity="0.0"><g stroke="rgb(0,0,0)" stroke-opacity="1.0" stroke-width="1.0e-2" stroke-linecap="butt" stroke-linejoin="miter" font-size="1.0em" stroke-miterlimit="10.0"><g transform="matrix(37.84063632512825,0.0,0.0,37.84063632512825,16.918466920820208,457.7210900362404)"><path d="M 0.0,0.0 v -12.0 h 10.0 v 12.0 Z" /><g stroke="rgb(128,128,128)" stroke-opacity="1.0" stroke-dasharray="0.1,0.1" stroke-dashoffset="0.0"><path d="M 0.0,-12.0 h 10.0 " /></g><g stroke="rgb(128,128,128)" stroke-opacity="1.0" stroke-dasharray="0.1,0.1" stroke-dashoffset="0.0"><path d="M 0.0,-10.0 h 10.0 " /></g><g stroke="rgb(128,128,128)" stroke-opacity="1.0" stroke-dasharray="0.1,0.1" stroke-dashoffset="0.0"><path d="M 0.0,-8.0 h 10.0 " /></g><g stroke="rgb(128,128,128)" stroke-opacity="1.0" stroke-dasharray="0.1,0.1" stroke-dashoffset="0.0"><path d="M 0.0,-6.0 h 10.0 " /></g><g stroke="rgb(128,128,128)" stroke-opacity="1.0" stroke-dasharray="0.1,0.1" stroke-dashoffset="0.0"><path d="M 0.0,-4.0 h 10.0 " /></g><g stroke="rgb(128,128,128)" stroke-opacity="1.0" stroke-dasharray="0.1,0.1" stroke-dashoffset="0.0"><path d="M 0.0,-2.0 h 10.0 " /></g><g stroke="rgb(128,128,128)" stroke-opacity="1.0" stroke-dasharray="0.1,0.1" stroke-dashoffset="0.0"><path d="M 0.0,0.0 h 10.0 " /></g><path d="M 10.0,-12.0 h -9.999999999999964e-2 " /><path d="M 10.0,-10.0 h -9.999999999999964e-2 " /><path d="M 10.0,-8.0 h -9.999999999999964e-2 " /><path d="M 10.0,-6.0 h -9.999999999999964e-2 " /><path d="M 10.0,-4.0 h -9.999999999999964e-2 " /><path d="M 10.0,-2.0 h -9.999999999999964e-2 " /><path d="M 10.0,0.0 h -9.999999999999964e-2 " /><path d="M 0.0,-12.0 h 0.1 " /><path d="M 0.0,-10.0 h 0.1 " /><path d="M 0.0,-8.0 h 0.1 " /><path d="M 0.0,-6.0 h 0.1 " /><path d="M 0.0,-4.0 h 0.1 " /><path d="M 0.0,-2.0 h 0.1 " /><path d="M 0.0,0.0 h 0.1 " /><g fill="rgb(0,0,0)" fill-opacity="1.0" stroke-width="0.0"><g fill="rgb(0,0,0)" fill-opacity="1.0"><g fill="rgb(0,0,0)" fill-opacity="1.0"><path d="M -0.47330016583747925,-11.904311774461029 ZM -0.41094527363184075,-12.062520729684909 c -6.301824212271974e-3,0.0 -2.0895522388059702e-2,5.970149253731343e-3 -2.8192371475953566e-2 9.286898839137645e-3l -3.980099502487562e-3,-1.0281923714759536e-2 c 2.9187396351575457e-2,-1.3598673300165837e-2 4.046434494195688e-2,-2.0563847429519073e-2 5.704809286898839e-2 -3.2504145936981754e-2h 6.301824212271974e-3 v 0.16683250414593698 c 0.0,1.1940298507462687e-2 1.658374792703151e-3,1.5257048092868989e-2 1.2603648424543947e-2 1.5257048092868989e-2h 1.724709784411277e-2 c 9.950248756218905e-4,0.0 2.6533996683250414e-3,6.633499170812604e-4 2.6533996683250414e-3 2.6533996683250414e-3v 7.296849087893864e-3 l -4.543946932006634e-2,-6.633499170812604e-4 l -4.6102819237147596e-2,6.633499170812604e-4 v -7.296849087893864e-3 c 3.316749585406302e-4,-9.950248756218905e-4 6.633499170812604e-4,-2.6533996683250414e-3 2.6533996683250414e-3 -2.6533996683250414e-3h 1.990049751243781e-2 c 1.2603648424543947e-2,0.0 1.2603648424543947e-2,-5.638474295190713e-3 1.2603648424543947e-2 -1.5257048092868989e-2v -0.11409618573797678 c 0.0,-1.1276948590381426e-2 0.0,-1.9237147595356552e-2 -7.296849087893864e-3 -1.9237147595356552e-2ZM -0.32802653399668324,-11.904311774461029 ZM -0.3087893864013267,-12.051243781094527 c 0.0,-1.890547263681592e-2 1.824212271973466e-2,-4.477611940298507e-2 5.306799336650083e-2 -4.477611940298507e-2c 2.5538971807628524e-2,0.0 5.538971807628524e-2,9.618573797678276e-3 5.538971807628524e-2 4.776119402985075e-2c 0.0,2.5207296849087894e-2 -1.2935323383084577e-2,3.781094527363184e-2 -3.0845771144278607e-2 5.505804311774461e-2l -3.150912106135987e-2,3.0514096185737978e-2 c -1.658374792703151e-3,1.658374792703151e-3 -2.3880597014925373e-2,2.3548922056384744e-2 -2.3880597014925373e-2 3.913764510779436e-2h 5.638474295190713e-2 c 1.1276948590381426e-2,0.0 1.724709784411277e-2,-5.638474295190713e-3 2.189054726368159e-2 -2.3880597014925373e-2l 8.291873963515755e-3,1.3266998341625207e-3 l -6.633499170812604e-3,4.1791044776119404e-2 h -0.10248756218905472 c 0.0,-1.857379767827529e-2 2.9850746268656717e-3,-3.283582089552239e-2 3.383084577114428e-2 -6.434494195688226e-2l 2.321724709784411e-2,-2.2885572139303482e-2 c 1.857379767827529e-2,-1.890547263681592e-2 2.6202321724709786e-2,-3.5157545605306796e-2 2.6202321724709786e-2 -5.538971807628524e-2c 0.0,-3.0182421227197345e-2 -2.0563847429519073e-2,-3.880597014925373e-2 -3.1840796019900496e-2 -3.880597014925373e-2c -2.2885572139303482e-2,0.0 -2.9187396351575457e-2,1.1940298507462687e-2 -2.9187396351575457e-2 1.990049751243781e-2c 0.0,2.6533996683250414e-3 6.633499170812604e-4,5.306799336650083e-3 1.3266998341625207e-3 7.6285240464344945e-3c 6.633499170812604e-4,2.321724709784411e-3 1.3266998341625207e-3,4.643449419568822e-3 1.3266998341625207e-3 7.296849087893864e-3c 0.0,8.623548922056384e-3 -6.633499170812604e-3,1.1940298507462687e-2 -1.1940298507462687e-2 1.1940298507462687e-2c -7.296849087893864e-3,0.0 -1.2603648424543947e-2,-5.638474295190713e-3 -1.2603648424543947e-2 -1.2271973466003316e-2Z" /></g></g></g><g fill="rgb(0,0,0)" fill-opacity="1.0" stroke-width="0.0"><g fill="rgb(0,0,0)" fill-opacity="1.0"><g fill="rgb(0,0,0)" fill-opacity="1.0"><path d="M -0.4772802653399668,-9.906135986733002 ZM -0.4149253731343283,-10.064344941956882 c -6.301824212271974e-3,0.0 -2.0895522388059702e-2,5.970149253731343e-3 -2.8192371475953566e-2 9.286898839137645e-3l -3.980099502487562e-3,-1.0281923714759536e-2 c 2.9187396351575457e-2,-1.3598673300165837e-2 4.046434494195688e-2,-2.0563847429519073e-2 5.704809286898839e-2 -3.2504145936981754e-2h 6.301824212271974e-3 v 0.16683250414593698 c 0.0,1.1940298507462687e-2 1.658374792703151e-3,1.5257048092868989e-2 1.2603648424543947e-2 1.5257048092868989e-2h 1.724709784411277e-2 c 9.950248756218905e-4,0.0 2.6533996683250414e-3,6.633499170812604e-4 2.6533996683250414e-3 2.6533996683250414e-3v 7.296849087893864e-3 l -4.543946932006634e-2,-6.633499170812604e-4 l -4.6102819237147596e-2,6.633499170812604e-4 v -7.296849087893864e-3 c 3.316749585406302e-4,-9.950248756218905e-4 6.633499170812604e-4,-2.6533996683250414e-3 2.6533996683250414e-3 -2.6533996683250414e-3h 1.990049751243781e-2 c 1.2603648424543947e-2,0.0 1.2603648424543947e-2,-5.638474295190713e-3 1.2603648424543947e-2 -1.5257048092868989e-2v -0.11409618573797678 c 0.0,-1.1276948590381426e-2 0.0,-1.9237147595356552e-2 -7.296849087893864e-3 -1.9237147595356552e-2ZM -0.3320066334991708,-9.906135986733002 ZM -0.25936981757877275,-10.086235489220563 c -1.4262023217247097e-2,0.0 -3.5157545605306796e-2,1.3930348258706468e-2 -3.5157545605306796e-2 9.12106135986733e-2c 0.0,2.7197346600331674e-2 4.975124378109453e-3,8.192371475953565e-2 3.416252072968491e-2 8.192371475953565e-2c 5.638474295190713e-3,0.0 2.155887230514096e-2,-3.648424543946932e-3 2.8524046434494195e-2 -2.9519071310116086e-2c 4.311774461028192e-3,-1.5920398009950248e-2 6.633499170812604e-3,-3.582089552238806e-2 6.633499170812604e-3 -6.467661691542288e-2c 0.0,-4.212271973466003e-2 -1.0613598673300166e-2,-6.567164179104477e-2 -2.023217247097844e-2 -7.396351575456053e-2c -3.648424543946932e-3,-3.316749585406302e-3 -8.623548922056384e-3,-4.975124378109453e-3 -1.3930348258706468e-2 -4.975124378109453e-3ZM -0.25936981757877275,-10.086235489220563 ZM -0.2606965174129353,-9.902155887230514 c -3.548922056384743e-2,0.0 -5.93698175787728e-2,-4.543946932006634e-2 -5.93698175787728e-2 -9.618573797678275e-2c 0.0,-6.202321724709784e-2 2.9519071310116086e-2,-9.950248756218906e-2 6.069651741293532e-2 -9.950248756218906e-2c 1.4262023217247097e-2,0.0 2.8524046434494195e-2,8.955223880597015e-3 3.814262023217247e-2 2.189054726368159e-2c 1.3930348258706468e-2,1.857379767827529e-2 2.122719734660033e-2,4.3449419568822555e-2 2.122719734660033e-2 7.462686567164178e-2c 0.0,7.36318407960199e-2 -3.648424543946932e-2,9.917081260364842e-2 -6.069651741293532e-2 9.917081260364842e-2Z" /></g></g></g><g fill="rgb(0,0,0)" fill-opacity="1.0" stroke-width="0.0"><g fill="rgb(0,0,0)" fill-opacity="1.0"><g fill="rgb(0,0,0)" fill-opacity="1.0"><path d="M -0.33134328358208953,-7.906135986733002 ZM -0.2577114427860696,-8.089883913764512 c -1.890547263681592e-2,0.0 -3.1177446102819237e-2,1.4925373134328358e-2 -3.1177446102819237e-2 2.9519071310116086e-2c 0.0,9.618573797678276e-3 3.980099502487562e-3,2.122719734660033e-2 2.3880597014925373e-2 3.416252072968491e-2l 9.618573797678276e-3,5.970149253731343e-3 c 8.623548922056384e-3,-6.301824212271974e-3 2.8855721393034824e-2,-2.155887230514096e-2 2.8855721393034824e-2 -3.8474295190713104e-2c 0.0,-1.4593698175787729e-2 -1.0613598673300166e-2,-3.1177446102819237e-2 -3.1177446102819237e-2 -3.1177446102819237e-2ZM -0.2577114427860696,-8.089883913764512 ZM -0.20696517412935322,-8.058374792703152 c 0.0,2.023217247097844e-2 -2.2885572139303482e-2,3.615257048092869e-2 -3.681592039800995e-2 4.543946932006634e-2l 1.9237147595356552e-2,1.2603648424543947e-2 c 1.6252072968490877e-2,1.0613598673300166e-2 2.4543946932006632e-2,2.5207296849087894e-2 2.4543946932006632e-2 4.3449419568822555e-2c 0.0,2.3880597014925373e-2 -1.956882255389718e-2,5.472636815920398e-2 -6.069651741293532e-2 5.472636815920398e-2c -3.316749585406302e-2,0.0 -5.60530679933665e-2,-1.7578772802653398e-2 -5.60530679933665e-2 -4.975124378109453e-2c 0.0,-1.2271973466003316e-2 5.306799336650083e-3,-2.6533996683250415e-2 1.824212271973466e-2 -3.781094527363184e-2c 7.960199004975124e-3,-6.965174129353234e-3 1.4925373134328358e-2,-1.2935323383084577e-2 2.2885572139303482e-2 -1.890547263681592e-2l -5.638474295190713e-3,-3.316749585406302e-3 c -1.9237147595356552e-2,-1.1940298507462687e-2 -2.8855721393034824e-2,-2.4875621890547265e-2 -2.8855721393034824e-2 -4.245439469320066e-2c 0.0,-2.4212271973466003e-2 2.189054726368159e-2,-4.3449419568822555e-2 5.406301824212272e-2 -4.3449419568822555e-2c 3.0845771144278607e-2,0.0 4.9087893864013264e-2,1.691542288557214e-2 4.9087893864013264e-2 3.946932006633499e-2ZM -0.20696517412935322,-8.058374792703152 ZM -0.26003316749585403,-7.911442786069652 c 1.4262023217247097e-2,0.0 3.913764510779436e-2,-7.6285240464344945e-3 3.913764510779436e-2 -3.913764510779436e-2c 0.0,-1.4925373134328358e-2 -9.286898839137645e-3,-2.9850746268656716e-2 -2.8855721393034824e-2 -4.1791044776119404e-2l -1.4593698175787729e-2,-8.955223880597015e-3 c -2.6865671641791045e-2,1.791044776119403e-2 -3.283582089552239e-2,4.0132669983416254e-2 -3.283582089552239e-2 4.94195688225539e-2c 0.0,2.8192371475953566e-2 2.2885572139303482e-2,4.046434494195688e-2 3.714759535655058e-2 4.046434494195688e-2Z" /></g></g></g><g fill="rgb(0,0,0)" fill-opacity="1.0" stroke-width="0.0"><g fill="rgb(0,0,0)" fill-opacity="1.0"><g fill="rgb(0,0,0)" fill-opacity="1.0"><path d="M -0.3333333333333333,-5.906135986733002 ZM -0.2948590381426202,-5.993034825870647 c -3.316749585406302e-4,3.316749585406302e-3 -3.316749585406302e-4,8.291873963515755e-3 -3.316749585406302e-4 1.1608623548922056e-2c 0.0,5.572139303482587e-2 2.4875621890547265e-2,6.965174129353234e-2 4.145936981757877e-2 6.965174129353234e-2c 1.5257048092868989e-2,0.0 3.150912106135987e-2,-1.4262023217247097e-2 3.150912106135987e-2 -4.875621890547264e-2c 0.0,-1.5588723051409618e-2 -7.960199004975124e-3,-4.7429519071310114e-2 -3.980099502487562e-2 -4.7429519071310114e-2c -6.965174129353234e-3,0.0 -1.956882255389718e-2,6.633499170812604e-4 -3.283582089552239e-2 1.4925373134328358e-2ZM -0.2948590381426202,-5.993034825870647 ZM -0.20796019900497514,-6.089220563847429 c -2.155887230514096e-2,1.990049751243781e-3 -4.0132669983416254e-2,7.6285240464344945e-3 -5.60530679933665e-2 2.321724709784411e-2c -1.5257048092868989e-2,1.4925373134328358e-2 -2.6202321724709786e-2,3.714759535655058e-2 -2.9850746268656716e-2 6.368159203980099e-2c 7.6285240464344945e-3,-9.286898839137645e-3 2.5870646766169153e-2,-1.6252072968490877e-2 3.8474295190713104e-2 -1.6252072968490877e-2c 4.9087893864013264e-2,0.0 5.538971807628524e-2,4.046434494195688e-2 5.538971807628524e-2 5.572139303482587e-2c 0.0,2.2553897180762852e-2 -1.1276948590381426e-2,6.069651741293532e-2 -5.704809286898839e-2 6.069651741293532e-2c -2.4212271973466003e-2,0.0 -6.1028192371475956e-2,-1.4262023217247097e-2 -6.1028192371475956e-2 -8.026533996683251e-2c 0.0,-3.0514096185737978e-2 1.0281923714759536e-2,-6.036484245439469e-2 3.316749585406302e-2 -8.325041459369817e-2c 2.122719734660033e-2,-2.155887230514096e-2 4.3449419568822555e-2,-3.0514096185737978e-2 7.595356550580432e-2 -3.217247097844113e-2Z" /></g></g></g><g fill="rgb(0,0,0)" fill-opacity="1.0" stroke-width="0.0"><g fill="rgb(0,0,0)" fill-opacity="1.0"><g fill="rgb(0,0,0)" fill-opacity="1.0"><path d="M -0.3349917081260365,-3.904311774461028 ZM -0.2494195688225539,-4.022056384742952 c 0.0,-2.321724709784411e-3 3.316749585406302e-4,-4.975124378109453e-3 3.316749585406302e-3 -6.633499170812604e-3c 3.648424543946932e-3,-2.6533996683250414e-3 9.618573797678276e-3,-5.638474295190713e-3 1.4593698175787729e-2 -5.638474295190713e-3c 4.311774461028192e-3,0.0 4.643449419568822e-3,3.648424543946932e-3 4.643449419568822e-3 1.0281923714759536e-2v 5.3399668325041456e-2 h 2.6865671641791045e-2 l -1.990049751243781e-3,1.5588723051409618e-2 h -2.4875621890547265e-2 v 2.7529021558872303e-2 c 0.0,9.286898839137645e-3 1.3266998341625207e-3,1.3930348258706468e-2 1.0945273631840795e-2 1.3930348258706468e-2h 8.955223880597015e-3 c 1.990049751243781e-3,0.0 2.321724709784411e-3,1.658374792703151e-3 2.321724709784411e-3 2.321724709784411e-3v 7.296849087893864e-3 c 0.0,0.0 -2.122719734660033e-2,-6.633499170812604e-4 -3.5157545605306796e-2 -6.633499170812604e-4c -1.2603648424543947e-2,0.0 -3.217247097844113e-2,6.633499170812604e-4 -3.217247097844113e-2 6.633499170812604e-4v -7.296849087893864e-3 c 0.0,-6.633499170812604e-4 3.316749585406302e-4,-2.321724709784411e-3 2.321724709784411e-3 -2.321724709784411e-3h 8.955223880597015e-3 c 1.0281923714759536e-2,0.0 1.1276948590381426e-2,-4.311774461028192e-3 1.1276948590381426e-2 -1.3930348258706468e-2v -2.7529021558872303e-2 h -6.500829187396351e-2 c -1.3266998341625207e-3,0.0 -1.990049751243781e-3,-6.633499170812604e-4 -2.9850746268656717e-3 -1.990049751243781e-3l -2.6533996683250414e-3,-3.648424543946932e-3 l -3.980099502487562e-3,-6.965174129353234e-3 c -3.316749585406302e-4,0.0 -3.316749585406302e-4,-3.316749585406302e-4 -3.316749585406302e-4 -6.633499170812604e-4c 0.0,-3.316749585406302e-4 3.316749585406302e-4,-6.633499170812604e-4 6.633499170812604e-4 -9.950248756218905e-4c 2.155887230514096e-2,-2.3880597014925373e-2 5.970149253731343e-2,-9.78441127694859e-2 7.164179104477612e-2 -0.1250414593698176c 3.316749585406302e-4,-1.3266998341625207e-3 9.950248756218905e-4,-1.658374792703151e-3 2.321724709784411e-3 -1.658374792703151e-3c 3.316749585406302e-4,0.0 7.6285240464344945e-3,2.9850746268656717e-3 1.1608623548922056e-2 3.648424543946932e-3c -1.4925373134328358e-2,4.0132669983416254e-2 -3.946932006633499e-2,8.325041459369817e-2 -6.368159203980099e-2 0.12172470978441127h 5.240464344941957e-2 v -5.140961857379768e-2 Z" /></g></g></g><g fill="rgb(0,0,0)" fill-opacity="1.0" stroke-width="0.0"><g fill="rgb(0,0,0)" fill-opacity="1.0"><g fill="rgb(0,0,0)" fill-opacity="1.0"><path d="M -0.32802653399668324,-1.904145936981758 ZM -0.3087893864013267,-2.051077943615257 c 0.0,-1.890547263681592e-2 1.824212271973466e-2,-4.477611940298507e-2 5.306799336650083e-2 -4.477611940298507e-2c 2.5538971807628524e-2,0.0 5.538971807628524e-2,9.618573797678276e-3 5.538971807628524e-2 4.776119402985075e-2c 0.0,2.5207296849087894e-2 -1.2935323383084577e-2,3.781094527363184e-2 -3.0845771144278607e-2 5.505804311774461e-2l -3.150912106135987e-2,3.0514096185737978e-2 c -1.658374792703151e-3,1.658374792703151e-3 -2.3880597014925373e-2,2.3548922056384744e-2 -2.3880597014925373e-2 3.913764510779436e-2h 5.638474295190713e-2 c 1.1276948590381426e-2,0.0 1.724709784411277e-2,-5.638474295190713e-3 2.189054726368159e-2 -2.3880597014925373e-2l 8.291873963515755e-3,1.3266998341625207e-3 l -6.633499170812604e-3,4.1791044776119404e-2 h -0.10248756218905472 c 0.0,-1.857379767827529e-2 2.9850746268656717e-3,-3.283582089552239e-2 3.383084577114428e-2 -6.434494195688226e-2l 2.321724709784411e-2,-2.2885572139303482e-2 c 1.857379767827529e-2,-1.890547263681592e-2 2.6202321724709786e-2,-3.5157545605306796e-2 2.6202321724709786e-2 -5.538971807628524e-2c 0.0,-3.0182421227197345e-2 -2.0563847429519073e-2,-3.880597014925373e-2 -3.1840796019900496e-2 -3.880597014925373e-2c -2.2885572139303482e-2,0.0 -2.9187396351575457e-2,1.1940298507462687e-2 -2.9187396351575457e-2 1.990049751243781e-2c 0.0,2.6533996683250414e-3 6.633499170812604e-4,5.306799336650083e-3 1.3266998341625207e-3 7.6285240464344945e-3c 6.633499170812604e-4,2.321724709784411e-3 1.3266998341625207e-3,4.643449419568822e-3 1.3266998341625207e-3 7.296849087893864e-3c 0.0,8.623548922056384e-3 -6.633499170812604e-3,1.1940298507462687e-2 -1.1940298507462687e-2 1.1940298507462687e-2c -7.296849087893864e-3,0.0 -1.2603648424543947e-2,-5.638474295190713e-3 -1.2603648424543947e-2 -1.2271973466003316e-2Z" /></g></g></g><g fill="rgb(0,0,0)" fill-opacity="1.0" stroke-width="0.0"><g fill="rgb(0,0,0)" fill-opacity="1.0"><g fill="rgb(0,0,0)" fill-opacity="1.0"><path d="M -0.3320066334991708,9.386401326699834e-2 ZM -0.2593698175787728,-8.623548922056384e-2 c -1.4262023217247097e-2,0.0 -3.5157545605306796e-2,1.3930348258706468e-2 -3.5157545605306796e-2 9.12106135986733e-2c 0.0,2.7197346600331674e-2 4.975124378109453e-3,8.192371475953565e-2 3.416252072968491e-2 8.192371475953565e-2c 5.638474295190713e-3,0.0 2.155887230514096e-2,-3.648424543946932e-3 2.8524046434494195e-2 -2.9519071310116086e-2c 4.311774461028192e-3,-1.5920398009950248e-2 6.633499170812604e-3,-3.582089552238806e-2 6.633499170812604e-3 -6.467661691542288e-2c 0.0,-4.212271973466003e-2 -1.0613598673300166e-2,-6.567164179104477e-2 -2.023217247097844e-2 -7.396351575456053e-2c -3.648424543946932e-3,-3.316749585406302e-3 -8.623548922056384e-3,-4.975124378109453e-3 -1.3930348258706468e-2 -4.975124378109453e-3ZM -0.2593698175787728,-8.623548922056384e-2 ZM -0.26069651741293537,9.78441127694859e-2 c -3.548922056384743e-2,0.0 -5.93698175787728e-2,-4.543946932006634e-2 -5.93698175787728e-2 -9.618573797678275e-2c 0.0,-6.202321724709784e-2 2.9519071310116086e-2,-9.950248756218906e-2 6.069651741293532e-2 -9.950248756218906e-2c 1.4262023217247097e-2,0.0 2.8524046434494195e-2,8.955223880597015e-3 3.814262023217247e-2 2.189054726368159e-2c 1.3930348258706468e-2,1.857379767827529e-2 2.122719734660033e-2,4.3449419568822555e-2 2.122719734660033e-2 7.462686567164178e-2c 0.0,7.36318407960199e-2 -3.648424543946932e-2,9.917081260364842e-2 -6.069651741293532e-2 9.917081260364842e-2Z" /></g></g></g><g stroke="rgb(128,128,128)" stroke-opacity="1.0" stroke-dasharray="0.1,0.1" stroke-dashoffset="0.0"><path d="M 10.0,0.0 v -12.0 " /></g><g stroke="rgb(128,128,128)" stroke-opacity="1.0" stroke-dasharray="0.1,0.1" stroke-dashoffset="0.0"><path d="M 8.0,0.0 v -12.0 " /></g><g stroke="rgb(128,128,128)" stroke-opacity="1.0" stroke-dasharray="0.1,0.1" stroke-dashoffset="0.0"><path d="M 6.0,0.0 v -12.0 " /></g><g stroke="rgb(128,128,128)" stroke-opacity="1.0" stroke-dasharray="0.1,0.1" stroke-dashoffset="0.0"><path d="M 4.0,0.0 v -12.0 " /></g><g stroke="rgb(128,128,128)" stroke-opacity="1.0" stroke-dasharray="0.1,0.1" stroke-dashoffset="0.0"><path d="M 2.0,0.0 v -12.0 " /></g><g stroke="rgb(128,128,128)" stroke-opacity="1.0" stroke-dasharray="0.1,0.1" stroke-dashoffset="0.0"><path d="M 0.0,0.0 v -12.0 " /></g><path d="M 10.0,-12.0 v 9.999999999999964e-2 " /><path d="M 8.0,-12.0 v 9.999999999999964e-2 " /><path d="M 6.0,-12.0 v 9.999999999999964e-2 " /><path d="M 4.0,-12.0 v 9.999999999999964e-2 " /><path d="M 2.0,-12.0 v 9.999999999999964e-2 " /><path d="M 0.0,-12.0 v 9.999999999999964e-2 " /><path d="M 10.0,0.0 v -0.1 " /><path d="M 8.0,0.0 v -0.1 " /><path d="M 6.0,0.0 v -0.1 " /><path d="M 4.0,0.0 v -0.1 " /><path d="M 2.0,0.0 v -0.1 " /><path d="M 0.0,0.0 v -0.1 " /><g fill="rgb(0,0,0)" fill-opacity="1.0" stroke-width="0.0"><g fill="rgb(0,0,0)" fill-opacity="1.0"><g fill="rgb(0,0,0)" fill-opacity="1.0"><path d="M 9.846268656716418,0.3938640132669983 ZM 9.908623548922057,0.23565505804311773 c -6.301824212271974e-3,0.0 -2.0895522388059702e-2,5.970149253731343e-3 -2.8192371475953566e-2 9.286898839137645e-3l -3.980099502487562e-3,-1.0281923714759536e-2 c 2.9187396351575457e-2,-1.3598673300165837e-2 4.046434494195688e-2,-2.0563847429519073e-2 5.704809286898839e-2 -3.2504145936981754e-2h 6.301824212271974e-3 v 0.16683250414593698 c 0.0,1.1940298507462687e-2 1.658374792703151e-3,1.5257048092868989e-2 1.2603648424543947e-2 1.5257048092868989e-2h 1.724709784411277e-2 c 9.950248756218905e-4,0.0 2.6533996683250414e-3,6.633499170812604e-4 2.6533996683250414e-3 2.6533996683250414e-3v 7.296849087893864e-3 l -4.543946932006634e-2,-6.633499170812604e-4 l -4.6102819237147596e-2,6.633499170812604e-4 v -7.296849087893864e-3 c 3.316749585406302e-4,-9.950248756218905e-4 6.633499170812604e-4,-2.6533996683250414e-3 2.6533996683250414e-3 -2.6533996683250414e-3h 1.990049751243781e-2 c 1.2603648424543947e-2,0.0 1.2603648424543947e-2,-5.638474295190713e-3 1.2603648424543947e-2 -1.5257048092868989e-2v -0.11409618573797678 c 0.0,-1.1276948590381426e-2 0.0,-1.9237147595356552e-2 -7.296849087893864e-3 -1.9237147595356552e-2ZM 9.991542288557214,0.3938640132669983 ZM 10.064179104477612,0.21376451077943615 c -1.4262023217247097e-2,0.0 -3.5157545605306796e-2,1.3930348258706468e-2 -3.5157545605306796e-2 9.12106135986733e-2c 0.0,2.7197346600331674e-2 4.975124378109453e-3,8.192371475953565e-2 3.416252072968491e-2 8.192371475953565e-2c 5.638474295190713e-3,0.0 2.155887230514096e-2,-3.648424543946932e-3 2.8524046434494195e-2 -2.9519071310116086e-2c 4.311774461028192e-3,-1.5920398009950248e-2 6.633499170812604e-3,-3.582089552238806e-2 6.633499170812604e-3 -6.467661691542288e-2c 0.0,-4.212271973466003e-2 -1.0613598673300166e-2,-6.567164179104477e-2 -2.023217247097844e-2 -7.396351575456053e-2c -3.648424543946932e-3,-3.316749585406302e-3 -8.623548922056384e-3,-4.975124378109453e-3 -1.3930348258706468e-2 -4.975124378109453e-3ZM 10.064179104477612,0.21376451077943615 ZM 10.062852404643449,0.3978441127694859 c -3.548922056384743e-2,0.0 -5.93698175787728e-2,-4.543946932006634e-2 -5.93698175787728e-2 -9.618573797678275e-2c 0.0,-6.202321724709784e-2 2.9519071310116086e-2,-9.950248756218906e-2 6.069651741293532e-2 -9.950248756218906e-2c 1.4262023217247097e-2,0.0 2.8524046434494195e-2,8.955223880597015e-3 3.814262023217247e-2 2.189054726368159e-2c 1.3930348258706468e-2,1.857379767827529e-2 2.122719734660033e-2,4.3449419568822555e-2 2.122719734660033e-2 7.462686567164178e-2c 0.0,7.36318407960199e-2 -3.648424543946932e-2,9.917081260364842e-2 -6.069651741293532e-2 9.917081260364842e-2Z" /></g></g></g><g fill="rgb(0,0,0)" fill-opacity="1.0" stroke-width="0.0"><g fill="rgb(0,0,0)" fill-opacity="1.0"><g fill="rgb(0,0,0)" fill-opacity="1.0"><path d="M 7.927031509121061,0.3938640132669983 ZM 8.000663349917081,0.21011608623548922 c -1.890547263681592e-2,0.0 -3.1177446102819237e-2,1.4925373134328358e-2 -3.1177446102819237e-2 2.9519071310116086e-2c 0.0,9.618573797678276e-3 3.980099502487562e-3,2.122719734660033e-2 2.3880597014925373e-2 3.416252072968491e-2l 9.618573797678276e-3,5.970149253731343e-3 c 8.623548922056384e-3,-6.301824212271974e-3 2.8855721393034824e-2,-2.155887230514096e-2 2.8855721393034824e-2 -3.8474295190713104e-2c 0.0,-1.4593698175787729e-2 -1.0613598673300166e-2,-3.1177446102819237e-2 -3.1177446102819237e-2 -3.1177446102819237e-2ZM 8.000663349917081,0.21011608623548922 ZM 8.051409618573798,0.24162520729684908 c 0.0,2.023217247097844e-2 -2.2885572139303482e-2,3.615257048092869e-2 -3.681592039800995e-2 4.543946932006634e-2l 1.9237147595356552e-2,1.2603648424543947e-2 c 1.6252072968490877e-2,1.0613598673300166e-2 2.4543946932006632e-2,2.5207296849087894e-2 2.4543946932006632e-2 4.3449419568822555e-2c 0.0,2.3880597014925373e-2 -1.956882255389718e-2,5.472636815920398e-2 -6.069651741293532e-2 5.472636815920398e-2c -3.316749585406302e-2,0.0 -5.60530679933665e-2,-1.7578772802653398e-2 -5.60530679933665e-2 -4.975124378109453e-2c 0.0,-1.2271973466003316e-2 5.306799336650083e-3,-2.6533996683250415e-2 1.824212271973466e-2 -3.781094527363184e-2c 7.960199004975124e-3,-6.965174129353234e-3 1.4925373134328358e-2,-1.2935323383084577e-2 2.2885572139303482e-2 -1.890547263681592e-2l -5.638474295190713e-3,-3.316749585406302e-3 c -1.9237147595356552e-2,-1.1940298507462687e-2 -2.8855721393034824e-2,-2.4875621890547265e-2 -2.8855721393034824e-2 -4.245439469320066e-2c 0.0,-2.4212271973466003e-2 2.189054726368159e-2,-4.3449419568822555e-2 5.406301824212272e-2 -4.3449419568822555e-2c 3.0845771144278607e-2,0.0 4.9087893864013264e-2,1.691542288557214e-2 4.9087893864013264e-2 3.946932006633499e-2ZM 8.051409618573798,0.24162520729684908 ZM 7.9983416252072965,0.38855721393034826 c 1.4262023217247097e-2,0.0 3.913764510779436e-2,-7.6285240464344945e-3 3.913764510779436e-2 -3.913764510779436e-2c 0.0,-1.4925373134328358e-2 -9.286898839137645e-3,-2.9850746268656716e-2 -2.8855721393034824e-2 -4.1791044776119404e-2l -1.4593698175787729e-2,-8.955223880597015e-3 c -2.6865671641791045e-2,1.791044776119403e-2 -3.283582089552239e-2,4.0132669983416254e-2 -3.283582089552239e-2 4.94195688225539e-2c 0.0,2.8192371475953566e-2 2.2885572139303482e-2,4.046434494195688e-2 3.714759535655058e-2 4.046434494195688e-2Z" /></g></g></g><g fill="rgb(0,0,0)" fill-opacity="1.0" stroke-width="0.0"><g fill="rgb(0,0,0)" fill-opacity="1.0"><g fill="rgb(0,0,0)" fill-opacity="1.0"><path d="M 5.9257048092868985,0.3938640132669983 ZM 5.964179104477612,0.3069651741293532 c -3.316749585406302e-4,3.316749585406302e-3 -3.316749585406302e-4,8.291873963515755e-3 -3.316749585406302e-4 1.1608623548922056e-2c 0.0,5.572139303482587e-2 2.4875621890547265e-2,6.965174129353234e-2 4.145936981757877e-2 6.965174129353234e-2c 1.5257048092868989e-2,0.0 3.150912106135987e-2,-1.4262023217247097e-2 3.150912106135987e-2 -4.875621890547264e-2c 0.0,-1.5588723051409618e-2 -7.960199004975124e-3,-4.7429519071310114e-2 -3.980099502487562e-2 -4.7429519071310114e-2c -6.965174129353234e-3,0.0 -1.956882255389718e-2,6.633499170812604e-4 -3.283582089552239e-2 1.4925373134328358e-2ZM 5.964179104477612,0.3069651741293532 ZM 6.051077943615257,0.21077943615257047 c -2.155887230514096e-2,1.990049751243781e-3 -4.0132669983416254e-2,7.6285240464344945e-3 -5.60530679933665e-2 2.321724709784411e-2c -1.5257048092868989e-2,1.4925373134328358e-2 -2.6202321724709786e-2,3.714759535655058e-2 -2.9850746268656716e-2 6.368159203980099e-2c 7.6285240464344945e-3,-9.286898839137645e-3 2.5870646766169153e-2,-1.6252072968490877e-2 3.8474295190713104e-2 -1.6252072968490877e-2c 4.9087893864013264e-2,0.0 5.538971807628524e-2,4.046434494195688e-2 5.538971807628524e-2 5.572139303482587e-2c 0.0,2.2553897180762852e-2 -1.1276948590381426e-2,6.069651741293532e-2 -5.704809286898839e-2 6.069651741293532e-2c -2.4212271973466003e-2,0.0 -6.1028192371475956e-2,-1.4262023217247097e-2 -6.1028192371475956e-2 -8.026533996683251e-2c 0.0,-3.0514096185737978e-2 1.0281923714759536e-2,-6.036484245439469e-2 3.316749585406302e-2 -8.325041459369817e-2c 2.122719734660033e-2,-2.155887230514096e-2 4.3449419568822555e-2,-3.0514096185737978e-2 7.595356550580432e-2 -3.217247097844113e-2Z" /></g></g></g><g fill="rgb(0,0,0)" fill-opacity="1.0" stroke-width="0.0"><g fill="rgb(0,0,0)" fill-opacity="1.0"><g fill="rgb(0,0,0)" fill-opacity="1.0"><path d="M 3.9271973466003316,0.3956882255389718 ZM 4.0127694859038145,0.2779436152570481 c 0.0,-2.321724709784411e-3 3.316749585406302e-4,-4.975124378109453e-3 3.316749585406302e-3 -6.633499170812604e-3c 3.648424543946932e-3,-2.6533996683250414e-3 9.618573797678276e-3,-5.638474295190713e-3 1.4593698175787729e-2 -5.638474295190713e-3c 4.311774461028192e-3,0.0 4.643449419568822e-3,3.648424543946932e-3 4.643449419568822e-3 1.0281923714759536e-2v 5.3399668325041456e-2 h 2.6865671641791045e-2 l -1.990049751243781e-3,1.5588723051409618e-2 h -2.4875621890547265e-2 v 2.7529021558872303e-2 c 0.0,9.286898839137645e-3 1.3266998341625207e-3,1.3930348258706468e-2 1.0945273631840795e-2 1.3930348258706468e-2h 8.955223880597015e-3 c 1.990049751243781e-3,0.0 2.321724709784411e-3,1.658374792703151e-3 2.321724709784411e-3 2.321724709784411e-3v 7.296849087893864e-3 c 0.0,0.0 -2.122719734660033e-2,-6.633499170812604e-4 -3.5157545605306796e-2 -6.633499170812604e-4c -1.2603648424543947e-2,0.0 -3.217247097844113e-2,6.633499170812604e-4 -3.217247097844113e-2 6.633499170812604e-4v -7.296849087893864e-3 c 0.0,-6.633499170812604e-4 3.316749585406302e-4,-2.321724709784411e-3 2.321724709784411e-3 -2.321724709784411e-3h 8.955223880597015e-3 c 1.0281923714759536e-2,0.0 1.1276948590381426e-2,-4.311774461028192e-3 1.1276948590381426e-2 -1.3930348258706468e-2v -2.7529021558872303e-2 h -6.500829187396351e-2 c -1.3266998341625207e-3,0.0 -1.990049751243781e-3,-6.633499170812604e-4 -2.9850746268656717e-3 -1.990049751243781e-3l -2.6533996683250414e-3,-3.648424543946932e-3 l -3.980099502487562e-3,-6.965174129353234e-3 c -3.316749585406302e-4,0.0 -3.316749585406302e-4,-3.316749585406302e-4 -3.316749585406302e-4 -6.633499170812604e-4c 0.0,-3.316749585406302e-4 3.316749585406302e-4,-6.633499170812604e-4 6.633499170812604e-4 -9.950248756218905e-4c 2.155887230514096e-2,-2.3880597014925373e-2 5.970149253731343e-2,-9.78441127694859e-2 7.164179104477612e-2 -0.1250414593698176c 3.316749585406302e-4,-1.3266998341625207e-3 9.950248756218905e-4,-1.658374792703151e-3 2.321724709784411e-3 -1.658374792703151e-3c 3.316749585406302e-4,0.0 7.6285240464344945e-3,2.9850746268656717e-3 1.1608623548922056e-2 3.648424543946932e-3c -1.4925373134328358e-2,4.0132669983416254e-2 -3.946932006633499e-2,8.325041459369817e-2 -6.368159203980099e-2 0.12172470978441127h 5.240464344941957e-2 v -5.140961857379768e-2 Z" /></g></g></g><g fill="rgb(0,0,0)" fill-opacity="1.0" stroke-width="0.0"><g fill="rgb(0,0,0)" fill-opacity="1.0"><g fill="rgb(0,0,0)" fill-opacity="1.0"><path d="M 1.9265339966832504,0.3958540630182421 ZM 1.945771144278607,0.24892205638474293 c 0.0,-1.890547263681592e-2 1.824212271973466e-2,-4.477611940298507e-2 5.306799336650083e-2 -4.477611940298507e-2c 2.5538971807628524e-2,0.0 5.538971807628524e-2,9.618573797678276e-3 5.538971807628524e-2 4.776119402985075e-2c 0.0,2.5207296849087894e-2 -1.2935323383084577e-2,3.781094527363184e-2 -3.0845771144278607e-2 5.505804311774461e-2l -3.150912106135987e-2,3.0514096185737978e-2 c -1.658374792703151e-3,1.658374792703151e-3 -2.3880597014925373e-2,2.3548922056384744e-2 -2.3880597014925373e-2 3.913764510779436e-2h 5.638474295190713e-2 c 1.1276948590381426e-2,0.0 1.724709784411277e-2,-5.638474295190713e-3 2.189054726368159e-2 -2.3880597014925373e-2l 8.291873963515755e-3,1.3266998341625207e-3 l -6.633499170812604e-3,4.1791044776119404e-2 h -0.10248756218905472 c 0.0,-1.857379767827529e-2 2.9850746268656717e-3,-3.283582089552239e-2 3.383084577114428e-2 -6.434494195688226e-2l 2.321724709784411e-2,-2.2885572139303482e-2 c 1.857379767827529e-2,-1.890547263681592e-2 2.6202321724709786e-2,-3.5157545605306796e-2 2.6202321724709786e-2 -5.538971807628524e-2c 0.0,-3.0182421227197345e-2 -2.0563847429519073e-2,-3.880597014925373e-2 -3.1840796019900496e-2 -3.880597014925373e-2c -2.2885572139303482e-2,0.0 -2.9187396351575457e-2,1.1940298507462687e-2 -2.9187396351575457e-2 1.990049751243781e-2c 0.0,2.6533996683250414e-3 6.633499170812604e-4,5.306799336650083e-3 1.3266998341625207e-3 7.6285240464344945e-3c 6.633499170812604e-4,2.321724709784411e-3 1.3266998341625207e-3,4.643449419568822e-3 1.3266998341625207e-3 7.296849087893864e-3c 0.0,8.623548922056384e-3 -6.633499170812604e-3,1.1940298507462687e-2 -1.1940298507462687e-2 1.1940298507462687e-2c -7.296849087893864e-3,0.0 -1.2603648424543947e-2,-5.638474295190713e-3 -1.2603648424543947e-2 -1.2271973466003316e-2Z" /></g></g></g><g fill="rgb(0,0,0)" fill-opacity="1.0" stroke-width="0.0"><g fill="rgb(0,0,0)" fill-opacity="1.0"><g fill="rgb(0,0,0)" fill-opacity="1.0"><path d="M -7.197346600331675e-2,0.3938640132669983 ZM 6.633499170812657e-4,0.21376451077943615 c -1.4262023217247097e-2,0.0 -3.5157545605306796e-2,1.3930348258706468e-2 -3.5157545605306796e-2 9.12106135986733e-2c 0.0,2.7197346600331674e-2 4.975124378109453e-3,8.192371475953565e-2 3.416252072968491e-2 8.192371475953565e-2c 5.638474295190713e-3,0.0 2.155887230514096e-2,-3.648424543946932e-3 2.8524046434494195e-2 -2.9519071310116086e-2c 4.311774461028192e-3,-1.5920398009950248e-2 6.633499170812604e-3,-3.582089552238806e-2 6.633499170812604e-3 -6.467661691542288e-2c 0.0,-4.212271973466003e-2 -1.0613598673300166e-2,-6.567164179104477e-2 -2.023217247097844e-2 -7.396351575456053e-2c -3.648424543946932e-3,-3.316749585406302e-3 -8.623548922056384e-3,-4.975124378109453e-3 -1.3930348258706468e-2 -4.975124378109453e-3ZM 6.633499170812657e-4,0.21376451077943615 ZM -6.633499170812657e-4,0.3978441127694859 c -3.548922056384743e-2,0.0 -5.93698175787728e-2,-4.543946932006634e-2 -5.93698175787728e-2 -9.618573797678275e-2c 0.0,-6.202321724709784e-2 2.9519071310116086e-2,-9.950248756218906e-2 6.069651741293532e-2 -9.950248756218906e-2c 1.4262023217247097e-2,0.0 2.8524046434494195e-2,8.955223880597015e-3 3.814262023217247e-2 2.189054726368159e-2c 1.3930348258706468e-2,1.857379767827529e-2 2.122719734660033e-2,4.3449419568822555e-2 2.122719734660033e-2 7.462686567164178e-2c 0.0,7.36318407960199e-2 -3.648424543946932e-2,9.917081260364842e-2 -6.069651741293532e-2 9.917081260364842e-2Z" /></g></g></g><g><g><path d="M 3.0,-10.5 v 9.0 " /></g><g fill="rgb(128,128,128)" fill-opacity="1.0"><g fill="rgb(128,128,128)" fill-opacity="1.0"><g fill="rgb(128,128,128)" fill-opacity="1.0"><path d="M 3.1,-4.0 l -2.2204460492503132e-17,-4.0 h -0.2 l -2.2204460492503132e-17,4.0 Z" /></g></g></g><g fill="rgb(0,128,0)" fill-opacity="1.0"><g fill="rgb(0,128,0)" fill-opacity="1.0"><g fill="rgb(0,128,0)" fill-opacity="1.0"><path d="M 3.2,-6.0 c 0.0,-0.1104569499661587 -8.954305003384129e-2,-0.2 -0.19999999999999996 -0.2c -0.1104569499661587,-6.763537510981779e-18 -0.2,8.954305003384128e-2 -0.2 0.19999999999999996c -1.3527075021963559e-17,0.1104569499661587 8.954305003384128e-2,0.2 0.19999999999999993 0.2c 0.1104569499661587,2.029061253294534e-17 0.2,-8.954305003384126e-2 0.20000000000000004 -0.19999999999999996Z" /></g></g></g></g><g><g><path d="M 2.0,-6.5 v 5.0 " /></g><g fill="rgb(128,128,128)" fill-opacity="1.0"><g fill="rgb(128,128,128)" fill-opacity="1.0"><g fill="rgb(128,128,128)" fill-opacity="1.0"><path d="M 2.1,-3.5 l -2.2204460492503132e-17,-1.0 h -0.2 l -2.2204460492503132e-17,1.0 Z" /></g></g></g><g fill="rgb(0,128,0)" fill-opacity="1.0"><g fill="rgb(0,128,0)" fill-opacity="1.0"><g fill="rgb(0,128,0)" fill-opacity="1.0"><path d="M 2.2,-4.0 c 0.0,-0.1104569499661587 -8.954305003384129e-2,-0.2 -0.19999999999999996 -0.2c -0.1104569499661587,-6.763537510981779e-18 -0.2,8.954305003384128e-2 -0.2 0.19999999999999996c -1.3527075021963559e-17,0.1104569499661587 8.954305003384128e-2,0.2 0.19999999999999993 0.2c 0.1104569499661587,2.029061253294534e-17 0.2,-8.954305003384126e-2 0.20000000000000004 -0.19999999999999996Z" /></g></g></g></g><g><g><path d="M 1.0,-7.5 v 5.0 " /></g><g fill="rgb(128,128,128)" fill-opacity="1.0"><g fill="rgb(128,128,128)" fill-opacity="1.0"><g fill="rgb(128,128,128)" fill-opacity="1.0"><path d="M 1.1,-4.0 l -2.2204460492503132e-17,-2.0 h -0.2 l -2.2204460492503132e-17,2.0 Z" /></g></g></g><g fill="rgb(0,128,0)" fill-opacity="1.0"><g fill="rgb(0,128,0)" fill-opacity="1.0"><g fill="rgb(0,128,0)" fill-opacity="1.0"><path d="M 1.2,-5.0 c 0.0,-0.1104569499661587 -8.954305003384129e-2,-0.2 -0.19999999999999996 -0.2c -0.1104569499661587,-6.763537510981779e-18 -0.2,8.954305003384128e-2 -0.2 0.19999999999999996c -1.3527075021963559e-17,0.1104569499661587 8.954305003384128e-2,0.2 0.19999999999999993 0.2c 0.1104569499661587,2.029061253294534e-17 0.2,-8.954305003384126e-2 0.20000000000000004 -0.19999999999999996Z" /></g></g></g></g></g></g></g></g></svg>